<?xml version="1.0" encoding="UTF-8"?>
<svg xmlns="http://www.w3.org/2000/svg" width="215" height="78" viewBox="0 0 215 78" fill="none">
  <mask id="mask0_123_17349" style="mask-type:luminance" maskUnits="userSpaceOnUse" x="-1" y="0" width="216" height="79">
    <path d="M214.79 0H-0.0537109V78.0005H214.79V0Z" fill="white"></path>
  </mask>
  <g mask="url(#mask0_123_17349)">
    <path d="M30.9876 47.0388L27.7866 37.2507H10.485L7.05852 47.0388H-0.0537109L18.8258 0H20.5053L38.0209 47.0388H30.9764H30.9876ZM19.3669 12.1619L12.1644 32.593H25.9719L19.3669 12.1619ZM48.4694 45.1712V60.3483H42.4393V13.1182H48.4694V15.9084C50.7576 13.6245 53.5191 12.4882 56.7539 12.4882C61.578 12.4882 65.3315 13.9845 68.014 16.9884C70.6967 19.9923 72.0492 24.3801 72.0492 30.1629C72.0492 35.3156 70.6967 39.5234 67.9914 42.786C65.2863 46.0487 61.3752 47.68 56.2468 47.68C54.804 47.68 53.2711 47.4326 51.6254 46.9151C49.9911 46.4088 48.9317 45.8238 48.4694 45.1712ZM48.4694 20.4311V40.1984C48.8527 40.7722 49.653 41.3122 50.8816 41.8297C52.1101 42.3473 53.3049 42.606 54.4659 42.606C61.9613 42.606 65.7034 38.387 65.7034 29.9378C65.7034 25.6513 64.813 22.5124 63.0433 20.5323C61.2625 18.5522 58.4221 17.5509 54.5109 17.5509C53.6656 17.5509 52.6286 17.8435 51.4001 18.4397C50.1715 19.0361 49.2021 19.6998 48.4808 20.4311H48.4694ZM79.5559 17.8659H75.6222V13.1182H79.5559V6.01908L85.5862 3.70145V13.1182H94.9187V17.8659H85.5862V34.7194C85.5862 37.5658 86.0707 39.6022 87.0287 40.806C87.9869 42.0098 89.5423 42.606 91.6727 42.606C93.2168 42.606 94.8173 42.2123 96.463 41.436L97.3534 46.7238C94.8625 47.3538 92.1122 47.6688 89.1365 47.6688C86.454 47.6688 84.1772 46.6675 82.3286 44.6762C80.4801 42.6849 79.5559 40.1646 79.5559 37.127V17.8659ZM122.364 43.146C119.952 46.1612 116.255 47.68 111.285 47.68C108.625 47.68 106.303 46.7126 104.353 44.7775C102.392 42.8424 101.422 40.446 101.422 37.5771C101.422 34.1344 102.933 31.2204 105.942 28.8466C108.952 26.4727 112.806 25.2801 117.473 25.2801C118.746 25.2801 120.178 25.5501 121.79 26.1014C121.79 20.6111 119.333 17.8659 114.429 17.8659C110.665 17.8659 107.768 18.8786 105.739 20.9036L103.203 15.8634C104.342 14.9296 105.931 14.142 107.948 13.467C109.966 12.8032 111.893 12.4657 113.742 12.4657C118.668 12.4657 122.252 13.5907 124.483 15.8184C126.715 18.0572 127.831 21.6124 127.831 26.4951V38.657C127.831 41.6386 128.722 43.6185 130.491 44.6086V47.6126C128.034 47.6126 126.197 47.2638 124.98 46.5663C123.762 45.8688 122.894 44.7212 122.364 43.1124V43.146ZM121.79 30.3767C119.885 29.9604 118.555 29.7466 117.788 29.7466C114.745 29.7466 112.254 30.5342 110.327 32.0868C108.399 33.6506 107.441 35.4957 107.441 37.6333C107.441 41.1659 109.526 42.9211 113.697 42.9211C116.74 42.9211 119.445 41.4697 121.79 38.5784V30.3767ZM154.521 18.9122C153.214 18.001 151.884 17.5509 150.554 17.5509C148.413 17.5509 146.553 18.5298 144.952 20.4987C143.352 22.4674 142.552 24.8301 142.552 27.5978V47.05H136.521V13.1182H142.552V18.5298C144.749 14.5021 148.019 12.4769 152.358 12.4769C153.44 12.4769 154.995 12.6682 157.024 13.0507L154.521 18.9122Z" fill="#636569"></path>
    <path d="M190.207 32.9307C188.257 32.9082 188.189 32.4582 190.071 31.9294L211.374 25.9328C213.257 25.404 214.789 23.3789 214.789 21.4214V2.73406C214.789 0.787698 213.572 0.225169 212.095 1.49649L161.443 44.7438C159.954 46.0152 160.337 47.0501 162.299 47.0501H211.251C213.201 47.0501 214.8 45.4526 214.8 43.5063V36.7672C214.8 34.8208 213.201 33.2007 211.251 33.1782L190.207 32.9307Z" fill="url(#paint0_linear_123_17349)"></path>
    <path d="M78.4619 69.7196C78.4619 69.0559 78.5859 68.4259 78.8339 67.8407C79.0818 67.2557 79.42 66.7382 79.8483 66.2883C80.2766 65.8382 80.7837 65.5007 81.3698 65.242C81.9559 64.9832 82.5872 64.8594 83.2635 64.8594C84.0186 64.8594 84.7174 65.0169 85.3373 65.3432C85.9573 65.6695 86.5096 66.1532 86.9718 66.8058V61.5293H88.1665V74.3887H86.9718V72.8023C86.4533 73.4211 85.8896 73.8824 85.2697 74.1749C84.6498 74.4674 83.9623 74.6249 83.2297 74.6249C82.5534 74.6249 81.9221 74.4899 81.336 74.2312C80.7499 73.9724 80.2428 73.6124 79.8257 73.1623C79.3974 72.7124 79.0705 72.1948 78.8225 71.6098C78.5859 71.0247 78.4619 70.3946 78.4619 69.731V69.7196ZM83.3423 73.5335C83.8158 73.5335 84.2779 73.4436 84.7288 73.2748C85.1683 73.0948 85.5628 72.8473 85.9122 72.5323C86.2617 72.206 86.5321 71.8236 86.735 71.351C86.938 70.8897 87.0394 70.361 87.0394 69.7984C87.0394 69.2584 86.9492 68.7633 86.7576 68.302C86.5659 67.8407 86.3067 67.447 85.9798 67.1095C85.6417 66.772 85.2585 66.502 84.819 66.3107C84.3793 66.1194 83.8946 66.0183 83.3649 66.0183C82.8351 66.0183 82.3392 66.1194 81.8883 66.3219C81.4374 66.5245 81.0543 66.7944 80.7274 67.1433C80.4006 67.4921 80.1413 67.8858 79.9609 68.3358C79.7805 68.7859 79.6905 69.2584 79.6905 69.7646C79.6905 70.2709 79.7805 70.7435 79.9723 71.1935C80.1638 71.6435 80.4118 72.0485 80.7387 72.3973C81.0655 72.746 81.4488 73.0274 81.8995 73.2299C82.3392 73.4324 82.8239 73.5335 83.3536 73.5335H83.3423ZM90.4997 62.2606C90.4997 61.9792 90.6011 61.743 90.7927 61.5629C90.9843 61.383 91.221 61.2817 91.4803 61.2817C91.7395 61.2817 91.9875 61.383 92.1791 61.5742C92.382 61.7655 92.4722 62.0018 92.4722 62.2606C92.4722 62.5193 92.3708 62.7667 92.1791 62.9581C91.9763 63.1606 91.7507 63.2506 91.4803 63.2506C91.2098 63.2506 90.9843 63.1494 90.7927 62.9581C90.6011 62.7555 90.4997 62.5306 90.4997 62.2606ZM90.9055 74.3887V65.1069H92.1002V74.3887H90.9055ZM94.2868 69.6859C94.2868 68.9997 94.422 68.3583 94.6814 67.7733C94.9405 67.1883 95.3013 66.6707 95.7408 66.2432C96.1805 65.8157 96.6876 65.4782 97.2625 65.2306C97.8374 64.9832 98.4347 64.8594 99.0434 64.8594C99.8774 64.8594 100.576 65.0282 101.162 65.3545C101.748 65.6807 102.278 66.1308 102.774 66.7158V65.1069H103.98V73.106C103.98 74.6362 103.597 75.8287 102.819 76.695C102.042 77.5614 100.835 78.0001 99.2011 78.0001C98.5361 78.0001 97.95 77.9326 97.4428 77.7976C96.9356 77.6626 96.496 77.4713 96.1127 77.235C95.7296 76.9876 95.4027 76.695 95.1321 76.335C94.8617 75.975 94.6138 75.5699 94.4108 75.12H95.707C96.0565 75.7388 96.5073 76.1887 97.0596 76.4813C97.6119 76.7739 98.3107 76.92 99.1335 76.92C100.306 76.92 101.196 76.6276 101.827 76.0424C102.459 75.4574 102.774 74.5912 102.774 73.4211V72.6223C102.312 73.2185 101.748 73.6574 101.106 73.9498C100.464 74.2424 99.776 74.3887 99.0434 74.3887C98.4009 74.3887 97.7922 74.2762 97.2173 74.0399C96.6426 73.8037 96.1353 73.4773 95.707 73.0724C95.2787 72.6561 94.9293 72.161 94.67 71.5872C94.4108 71.0135 94.2868 70.3834 94.2868 69.6859ZM95.5154 69.7534C95.5154 70.2147 95.5944 70.6648 95.7634 71.0809C95.9212 71.4972 96.1691 71.8686 96.4848 72.1948C96.8004 72.521 97.1949 72.7686 97.6682 72.9598C98.1417 73.1511 98.6826 73.2411 99.2913 73.2411C99.8098 73.2411 100.283 73.1511 100.711 72.9823C101.14 72.8136 101.512 72.5773 101.827 72.2623C102.143 71.9585 102.391 71.576 102.571 71.1373C102.752 70.6984 102.842 70.2035 102.842 69.6747C102.842 69.1458 102.74 68.6058 102.549 68.1671C102.357 67.717 102.098 67.3346 101.771 67.0196C101.444 66.6932 101.061 66.457 100.621 66.2883C100.182 66.1194 99.7196 66.0295 99.2462 66.0295C98.7164 66.0295 98.2317 66.1194 97.781 66.3107C97.3301 66.502 96.9356 66.7608 96.5974 67.087C96.2593 67.4132 95.9888 67.8183 95.7972 68.2796C95.6056 68.7409 95.5042 69.2359 95.5042 69.776L95.5154 69.7534ZM106.167 62.2492C106.167 61.968 106.268 61.7317 106.46 61.5517C106.652 61.3718 106.888 61.2705 107.147 61.2705C107.407 61.2705 107.655 61.3718 107.846 61.5629C108.049 61.7542 108.139 61.9904 108.139 62.2492C108.139 62.508 108.038 62.7555 107.846 62.9468C107.643 63.1494 107.418 63.2393 107.147 63.2393C106.877 63.2393 106.652 63.138 106.46 62.9468C106.268 62.7443 106.167 62.5193 106.167 62.2492ZM106.573 74.3775V65.0957H107.767V74.3775H106.573ZM109.841 65.0957H111.487V61.6304H112.682V65.0957H114.587V66.142H112.682V74.3775H111.487V66.142H109.841V65.0957ZM115.567 69.7084C115.567 69.0446 115.691 68.4145 115.939 67.8295C116.187 67.2445 116.525 66.727 116.954 66.2769C117.382 65.827 117.889 65.4894 118.475 65.2306C119.061 64.9718 119.692 64.8481 120.369 64.8481C121.124 64.8481 121.823 65.0056 122.443 65.3319C123.063 65.6582 123.615 66.142 124.077 66.7944V65.0957H125.249V74.3775H124.077V72.791C123.559 73.4098 122.995 73.8711 122.375 74.1637C121.755 74.4561 121.068 74.6136 120.335 74.6136C119.659 74.6136 119.027 74.4787 118.441 74.22C117.855 73.9612 117.348 73.6011 116.931 73.1511C116.503 72.701 116.176 72.1836 115.928 71.5985C115.691 71.0134 115.567 70.3834 115.567 69.7196V69.7084ZM120.448 73.5223C120.921 73.5223 121.383 73.4324 121.834 73.2636C122.274 73.0836 122.668 72.8361 123.018 72.521C123.367 72.1948 123.637 71.8123 123.852 71.3397C124.066 70.8785 124.167 70.3496 124.167 69.7872C124.167 69.2471 124.077 68.7521 123.885 68.2908C123.694 67.8295 123.435 67.4358 123.108 67.0982C122.781 66.7608 122.386 66.4908 121.936 66.2995C121.485 66.1082 121 66.0069 120.47 66.0069C119.941 66.0069 119.444 66.1082 118.994 66.3107C118.543 66.5132 118.16 66.7832 117.833 67.132C117.506 67.4809 117.247 67.8745 117.066 68.3246C116.886 68.7746 116.796 69.2471 116.796 69.7534C116.796 70.2597 116.886 70.7322 117.077 71.1822C117.269 71.6323 117.517 72.0373 117.844 72.386C118.171 72.7348 118.554 73.0161 119.005 73.2185C119.444 73.4211 119.929 73.5223 120.459 73.5223H120.448ZM128.991 61.5179V74.3775H127.797V61.5179H128.991ZM136.397 74.3775V61.5179H137.592V66.7608C138.561 65.4894 139.721 64.8594 141.074 64.8594C141.582 64.8594 142.032 64.9494 142.461 65.1181C142.878 65.2982 143.238 65.557 143.543 65.9057C143.847 66.2545 144.084 66.6932 144.253 67.2221C144.422 67.7508 144.512 68.3583 144.512 69.0559V74.3887H143.317V69.3371C143.317 68.2458 143.126 67.402 142.753 66.817C142.381 66.232 141.739 65.9395 140.849 65.9395C140.375 65.9395 139.925 66.0407 139.529 66.232C139.124 66.4344 138.786 66.7045 138.494 67.0532C138.201 67.402 137.986 67.8183 137.828 68.3133C137.67 68.8084 137.592 69.3483 137.592 69.9335V74.3775H136.397ZM146.619 69.7646C146.619 69.1346 146.733 68.5272 146.957 67.9308C147.183 67.3346 147.51 66.817 147.917 66.3557C148.322 65.8944 148.829 65.5344 149.426 65.2644C150.024 64.9944 150.678 64.8481 151.399 64.8481C152.12 64.8481 152.729 64.9718 153.304 65.2194C153.89 65.4669 154.397 65.8044 154.826 66.232C155.254 66.6595 155.592 67.1771 155.84 67.7733C156.087 68.3696 156.212 69.0333 156.212 69.7422V69.8322H147.837C147.859 70.3722 147.962 70.8559 148.141 71.2948C148.322 71.7335 148.569 72.116 148.885 72.4424C149.201 72.7686 149.572 73.0048 150.013 73.1849C150.452 73.3648 150.937 73.4436 151.455 73.4436C151.906 73.4436 152.312 73.3874 152.661 73.2636C153.011 73.1399 153.326 72.9823 153.597 72.7798C153.868 72.5773 154.116 72.3411 154.318 72.0936C154.521 71.8348 154.712 71.5648 154.882 71.2948L155.885 71.8236C155.446 72.6898 154.848 73.3648 154.105 73.8599C153.36 74.3549 152.48 74.6024 151.455 74.6024C150.689 74.6024 150.001 74.4674 149.393 74.2086C148.784 73.9498 148.276 73.5899 147.871 73.1511C147.465 72.7124 147.149 72.1948 146.935 71.6098C146.721 71.0247 146.608 70.406 146.608 69.7646H146.619ZM147.973 68.7859H154.904C154.656 67.8183 154.217 67.1095 153.586 66.6707C152.954 66.232 152.233 66.0069 151.421 66.0069C150.61 66.0069 149.867 66.232 149.269 66.6932C148.671 67.1545 148.242 67.8521 147.973 68.7859ZM157.835 69.7084C157.835 69.0446 157.958 68.4145 158.207 67.8295C158.455 67.2445 158.793 66.727 159.221 66.2769C159.649 65.827 160.157 65.4894 160.743 65.2306C161.329 64.9718 161.961 64.8481 162.637 64.8481C163.392 64.8481 164.09 65.0056 164.71 65.3319C165.33 65.6582 165.883 66.142 166.345 66.7944V65.0957H167.517V74.3775H166.345V72.791C165.827 73.4098 165.263 73.8711 164.643 74.1637C164.023 74.4561 163.335 74.6136 162.603 74.6136C161.927 74.6136 161.296 74.4787 160.709 74.22C160.123 73.9612 159.615 73.6011 159.199 73.1511C158.771 72.701 158.444 72.1836 158.195 71.5985C157.958 71.0134 157.835 70.3834 157.835 69.7196V69.7084ZM162.715 73.5223C163.188 73.5223 163.651 73.4324 164.102 73.2636C164.542 73.0836 164.936 72.8361 165.285 72.521C165.635 72.1948 165.905 71.8123 166.119 71.3397C166.333 70.8785 166.436 70.3496 166.436 69.7872C166.436 69.2471 166.345 68.7521 166.154 68.2908C165.962 67.8295 165.702 67.4358 165.375 67.0982C165.048 66.7608 164.654 66.4908 164.204 66.2995C163.752 66.1082 163.268 66.0069 162.738 66.0069C162.208 66.0069 161.712 66.1082 161.261 66.3107C160.81 66.5132 160.427 66.7832 160.1 67.132C159.774 67.4809 159.514 67.8745 159.333 68.3246C159.154 68.7746 159.064 69.2471 159.064 69.7534C159.064 70.2597 159.154 70.7322 159.346 71.1822C159.537 71.6323 159.785 72.0373 160.112 72.386C160.439 72.7348 160.822 73.0161 161.272 73.2185C161.712 73.4211 162.196 73.5223 162.727 73.5223H162.715ZM171.259 61.5179V74.3775H170.065V61.5179H171.259ZM173.164 65.0957H174.809V61.6304H176.004V65.0957H177.908V66.142H176.004V74.3775H174.809V66.142H173.164V65.0957ZM179.746 74.3775V61.5179H180.941V66.7608C181.911 65.4894 183.071 64.8594 184.424 64.8594C184.931 64.8594 185.381 64.9494 185.81 65.1181C186.227 65.2982 186.588 65.557 186.892 65.9057C187.197 66.2545 187.434 66.6932 187.602 67.2221C187.772 67.7508 187.861 68.3583 187.861 69.0559V74.3887H186.666V69.3371C186.666 68.2458 186.475 67.402 186.104 66.817C185.732 66.232 185.089 65.9395 184.199 65.9395C183.726 65.9395 183.274 66.0407 182.88 66.232C182.474 66.4344 182.135 66.7045 181.843 67.0532C181.55 67.402 181.335 67.8183 181.178 68.3133C181.02 68.8084 180.941 69.3483 180.941 69.9335V74.3775H179.746Z" fill="#7F7E82"></path>
  </g>
  <defs>
    <linearGradient id="paint0_linear_123_17349" x1="221.868" y1="23.9302" x2="153.529" y2="23.9302" gradientUnits="userSpaceOnUse">
      <stop offset="0.15" stop-color="#37D0F7"></stop>
      <stop offset="0.28" stop-color="#2EBEEB"></stop>
      <stop offset="0.77" stop-color="#1083C5"></stop>
      <stop offset="1" stop-color="#056CB6"></stop>
    </linearGradient>
  </defs>
</svg>